# ProBuilder 5.0.7
# https://unity3d.com/unity/features/worldbuilding/probuilder
# 18/07/2023 3:09:38 PM

mtllib ./Env_Wall_1.mtl
o Env_Wall_1

g Env_Wall_1
v 4.489 0.04900002 -8.951
v 1.489 0.04900002 -8.951
v 4.489 3.049 -8.951
v 1.489 3.049 -8.951
v 1.489 0.04900002 -9.051001
v 1.489 3.049 -9.051001
v 4.489 0.04900002 -9.051001
v 4.489 3.049 -9.051001

vt 1.5 -1.5
vt -1.5 -1.5
vt 1.5 1.5
vt -1.5 1.5
vt 0.05 -1.5
vt -0.05 -1.5
vt 0.05 1.5
vt -0.05 1.5
vt -1.5 0.05
vt 1.5 0.05
vt -1.5 -0.05
vt 1.5 -0.05

vn 0 0 1
vn -1 0 0
vn 0 0 -1
vn 1 0 0
vn 0 1 0
vn 0 -1 0

usemtl ProBuilderDefault
f 3/3/1 4/4/1 2/2/1 1/1/1
f 4/7/2 6/8/2 5/6/2 2/5/2
f 6/3/3 8/4/3 7/2/3 5/1/3
f 8/7/4 3/8/4 1/6/4 7/5/4
f 8/11/5 6/12/5 4/10/5 3/9/5
f 1/10/6 2/9/6 5/11/6 7/12/6

