# ProBuilder 5.0.7
# https://unity3d.com/unity/features/worldbuilding/probuilder
# 18/07/2023 2:39:49 PM

mtllib ./Locker.mtl
o Locker

g Locker
v 0.15 -0.05 0.05
v -0.15 -0.05 0.05
v 0.15 0.05 0.05
v -0.15 0.05 0.05
v -0.15 -0.05 -0.05
v -0.15 0.05 -0.05
v 0.15 -0.05 -0.05
v 0.15 0.05 -0.05
v -0.1999998 -1 0
v -0.25 -1 0
v -0.1999998 1 0
v -0.25 1 0
v -0.25 -1 -0.05000019
v -0.25 1 -0.05000019
v -0.1999998 -1 -0.05000019
v -0.1999998 1 -0.05000019
v 0.75 0.95 0
v -0.25 0.95 0
v 0.75 1 0
v -0.25 0.95 -0.05000019
v 0.75 0.95 -0.05000019
v 0.75 1 -0.05000019
v 0.75 -1 0
v 0.75 -0.95 0
v -0.25 -0.95 0
v -0.25 -0.95 -0.05000019
v 0.75 -1 -0.05000019
v 0.75 -0.95 -0.05000019
v 0.7 -1 0
v 0.7 1 0
v 0.7 -1 -0.05000019
v 0.7 1 -0.05000019
v 0.75 -1 0.5
v -0.25 -1 0.5
v 0.75 1 0.5
v -0.25 1 0.5
v 0.25 -1 0
v 0.25 0 0
v -0.25 0 0
v 0.75 0 0
v 0.25 1 0
v 0.75 0.5330168 0
v 0.25 0.5330168 0
v -0.25 0.5330168 0
v -0.25 0.6501815 0
v 0.75 0.5330168 0.01525927
v 0.75 0.6501815 0.01525927
v 0.25 0.6501815 0.01525927
v 0.25 0.5330168 0.01525927
v 0.75 0.6501815 0
v 0.25 0.6501815 0
v -0.25 0.6501815 0.01525927
v -0.25 0.5330168 0.01525927

vt 0.15 -0.05
vt -0.15 -0.05
vt 0.15 0.05
vt -0.15 0.05
vt 0.05 -0.05
vt -0.05 -0.05
vt 0.05 0.05
vt -0.05 0.05
vt 0.02500001 -1
vt -0.02500001 -1
vt 0.02500001 1
vt -0.02500001 1
vt -0.025 -1
vt -0.025 1
vt 0.025 -1
vt 0.025 1
vt -0.02500001 0.025
vt 0.02500001 0.025
vt -0.02500001 -0.025
vt 0.02500001 -0.025
vt 0.5 -0.02499998
vt -0.5 -0.02499998
vt 0.5 0.02499998
vt -0.5 0.02499998
vt -0.025 -0.02499998
vt 0.025 0.02499998
vt -0.025 0.02499998
vt 0.025 -0.02499998
vt 0.025 0.02499998
vt -0.025 0.02499998
vt -0.5 0.025
vt 0.5 0.025
vt -0.025 0.02500004
vt 0.025 0.02500004
vt 0.5 -1
vt -0.5 -1
vt 0.5 1
vt -0.5 1
vt 0 -1
vt 0 0
vt 0.5 0
vt -0.5 0
vt -0.5 0.25
vt 0.5 0.25
vt 0.5 -0.25
vt 0 -0.25
vt -0.5 -0.25
vt -0.5 0.5330168
vt 0 0.5330168
vt 0.5 0.5330168
vt 0.25 -1
vt -0.25 -1
vt -0.25 0
vt -0.25 0.5330168
vt -0.25 0.6501815
vt -0.25 1
vt 0.25 1
vt -0.5 0.6501815
vt 0 0.6501815
vt 0 1
vt 0.5 0.6501815
vt 0.25 0.6501815
vt 0.25 0.5330168
vt 0.25 0
vt 0 -0.2347407
vt -0.5 -0.2347407
vt 0.2347407 0.6501815
vt 0.2347407 0.5330168
vt 0.5 -0.2347407
vt -0.2347407 0.5330168
vt -0.2347407 0.6501815

vn 0 0 1
vn -1 0 0
vn 0 0 -1
vn 1 0 0
vn 0 1 0
vn 0 -1 0

usemtl ProBuilderDefault
f 35/43/5 19/47/5 41/46/5
f 41/46/5 12/45/5 36/44/5
f 35/43/5 41/46/5 36/44/5
f 34/43/6 37/46/6 33/44/6
f 34/43/6 10/47/6 37/46/6
f 37/46/6 23/45/6 33/44/6
f 39/53/2 10/52/2 34/51/2
f 39/53/2 34/51/2 36/57/2
f 36/57/2 44/54/2 39/53/2
f 36/57/2 45/55/2 44/54/2
f 36/57/2 12/56/2 45/55/2
f 50/62/4 19/57/4 35/56/4
f 42/63/4 50/62/4 35/56/4
f 40/64/4 42/63/4 35/56/4
f 35/56/4 33/52/4 40/64/4
f 33/52/4 23/51/4 40/64/4
f 4/4/1 2/2/1 1/1/1
f 1/1/1 3/3/1 4/4/1
f 6/8/2 5/6/2 2/5/2
f 2/5/2 4/7/2 6/8/2
f 8/4/3 7/2/3 5/1/3
f 5/1/3 6/3/3 8/4/3
f 3/8/4 1/6/4 7/5/4
f 7/5/4 8/7/4 3/8/4
f 6/1/5 4/3/5 3/4/5
f 3/4/5 8/2/5 6/1/5
f 2/4/6 5/2/6 7/1/6
f 7/1/6 1/3/6 2/4/6
f 12/12/1 10/10/1 9/9/1
f 9/9/1 11/11/1 12/12/1
f 14/14/2 13/13/2 10/9/2
f 10/9/2 12/11/2 14/14/2
f 16/12/3 15/10/3 13/9/3
f 13/9/3 14/11/3 16/12/3
f 11/12/4 9/10/4 15/15/4
f 15/15/4 16/16/4 11/12/4
f 14/20/5 12/18/5 11/17/5
f 11/17/5 16/19/5 14/20/5
f 10/17/6 13/19/6 15/20/6
f 15/20/6 9/18/6 10/17/6
f 12/24/1 18/22/1 17/21/1
f 17/21/1 19/23/1 12/24/1
f 14/27/2 20/25/2 18/20/2
f 18/20/2 12/26/2 14/27/2
f 22/24/3 21/22/3 20/21/3
f 20/21/3 14/23/3 22/24/3
f 19/30/4 17/19/4 21/28/4
f 21/28/4 22/29/4 19/30/4
f 14/21/5 12/32/5 19/31/5
f 19/31/5 22/22/5 14/21/5
f 18/31/6 20/22/6 21/21/6
f 21/21/6 17/32/6 18/31/6
f 25/31/1 10/22/1 23/21/1
f 23/21/1 24/32/1 25/31/1
f 26/33/2 13/25/2 10/20/2
f 10/20/2 25/18/2 26/33/2
f 28/31/3 27/22/3 13/21/3
f 13/21/3 26/32/3 28/31/3
f 24/17/4 23/19/4 27/28/4
f 27/28/4 28/34/4 24/17/4
f 26/21/5 25/32/5 24/31/5
f 24/31/5 28/22/5 26/21/5
f 10/31/6 13/22/6 27/21/6
f 27/21/6 23/32/6 10/31/6
f 30/14/1 29/13/1 23/15/1
f 23/15/1 19/16/1 30/14/1
f 32/14/2 31/13/2 29/9/2
f 29/9/2 30/11/2 32/14/2
f 22/14/3 27/13/3 31/15/3
f 31/15/3 32/16/3 22/14/3
f 19/12/4 23/10/4 27/15/4
f 27/15/4 22/16/4 19/12/4
f 32/28/5 30/34/5 19/33/5
f 19/33/5 22/25/5 32/28/5
f 29/33/6 31/25/6 27/28/6
f 27/28/6 23/34/6 29/33/6
f 36/38/1 34/36/1 33/35/1
f 33/35/1 35/37/1 36/38/1
f 39/41/3 38/40/3 37/39/3
f 37/39/3 10/35/3 39/41/3
f 38/40/3 40/42/3 23/36/3
f 23/36/3 37/39/3 38/40/3
f 43/49/3 42/48/3 40/42/3
f 40/42/3 38/40/3 43/49/3
f 44/50/3 43/49/3 38/40/3
f 38/40/3 39/41/3 44/50/3
f 48/59/3 47/58/3 46/48/3
f 46/48/3 49/49/3 48/59/3
f 41/60/3 19/38/3 50/58/3
f 50/58/3 51/59/3 41/60/3
f 52/61/3 48/59/3 49/49/3
f 49/49/3 53/50/3 52/61/3
f 12/37/3 41/60/3 51/59/3
f 51/59/3 45/61/3 12/37/3
f 46/66/5 42/47/5 43/46/5
f 43/46/5 49/65/5 46/66/5
f 52/66/6 45/47/6 51/46/6
f 51/46/6 48/65/6 52/66/6
f 53/68/4 44/63/4 45/62/4
f 45/62/4 52/67/4 53/68/4
f 49/65/5 43/46/5 44/45/5
f 44/45/5 53/69/5 49/65/5
f 47/71/2 50/55/2 42/54/2
f 42/54/2 46/70/2 47/71/2
f 48/65/6 51/46/6 50/45/6
f 50/45/6 47/69/6 48/65/6

