# ProBuilder 5.0.7
# https://unity3d.com/unity/features/worldbuilding/probuilder
# 18/07/2023 3:09:38 PM

mtllib ./Env_Door_3.mtl
o Env_Door_3

g Env_Door_3
v -4.5 2.098553 -8.95
v -4.5 0.04855349 -8.95
v -5.923283 2.098553 -8.95
v -5.923283 0.04855347 -8.95
v -7.023283 0.04855347 -8.95
v -7.5 0.04855349 -8.95
v -7.023283 2.098553 -8.95
v -7.5 2.098553 -8.95
v -4.5 3.048553 -8.95
v -5.923283 3.048553 -8.95
v -7.023283 3.048553 -8.95
v -7.5 3.048553 -8.95
v -4.5 2.098553 -9.05
v -5.923283 2.098553 -9.05
v -4.5 0.04855349 -9.05
v -5.923283 0.04855347 -9.05
v -7.023283 0.04855347 -9.05
v -7.023283 2.098553 -9.05
v -7.5 0.04855349 -9.05
v -7.5 2.098553 -9.05
v -4.5 3.048553 -9.05
v -5.923283 3.048553 -9.05
v -7.023283 3.048553 -9.05
v -7.5 3.048553 -9.05

vt 1.5 2.124553
vt 1.5 0.07455349
vt 0.07671689 2.124553
vt 0.07671689 0.07455347
vt -1.023283 0.07455347
vt -1.5 0.07455349
vt -1.023283 2.124553
vt -1.5 2.124553
vt 1.5 3.074553
vt 0.07671689 3.074553
vt -1.023283 3.074553
vt -1.5 3.074553
vt -0.07671689 2.124553
vt -0.07671689 0.07455347
vt 1.023283 0.07455347
vt 1.023283 2.124553
vt -0.07671689 3.074553
vt 1.023283 3.074553
vt -1.023283 0.05000019
vt 0.0767169 0.05000019
vt -1.023283 -0.05000019
vt 0.0767169 -0.05000019
vt 0.05000019 0.07455347
vt -0.05000019 0.07455347
vt 0.05000019 2.124553
vt -0.05000019 2.124553
vt 1.023283 -0.05000019
vt 1.5 -0.05
vt 1.023283 0.05000019
vt 1.5 0.05
vt -0.0767169 -0.05000019
vt -0.0767169 0.05000019
vt -1.5 -0.05
vt -1.5 0.05
vt -0.05 3.074553
vt 0.05 3.074553

vn 0 0 1
vn 0 0 -1
vn 0 -1 0
vn 1 0 0
vn -1 0 0
vn 0 1 0

usemtl ProBuilderDefault
f 3/3/1 4/4/1 2/2/1 1/1/1
f 7/7/1 8/8/1 6/6/1 5/5/1
f 9/9/1 10/10/1 3/3/1 1/1/1
f 12/12/1 8/8/1 7/7/1 11/11/1
f 10/10/1 11/11/1 7/7/1 3/3/1
f 15/6/2 16/14/2 14/13/2 13/8/2
f 19/2/2 20/1/2 18/16/2 17/15/2
f 14/13/2 22/17/2 21/12/2 13/8/2
f 18/16/2 20/1/2 24/9/2 23/18/2
f 18/16/2 23/18/2 22/17/2 14/13/2
f 18/21/3 14/22/3 3/20/3 7/19/3
f 18/25/4 7/26/4 5/24/4 17/23/4
f 3/25/5 14/26/5 16/24/5 4/23/5
f 12/30/6 11/29/6 23/27/6 24/28/6
f 11/29/6 10/32/6 22/31/6 23/27/6
f 10/32/6 9/34/6 21/33/6 22/31/6
f 5/19/3 6/34/3 19/33/3 17/21/3
f 6/23/5 8/25/5 20/26/5 19/24/5
f 8/25/5 12/36/5 24/35/5 20/26/5
f 2/30/3 4/20/3 16/22/3 15/28/3
f 13/25/4 21/36/4 9/35/4 1/26/4
f 15/23/4 13/25/4 1/26/4 2/24/4

