# ProBuilder 5.0.7
# https://unity3d.com/unity/features/worldbuilding/probuilder
# 18/07/2023 2:40:55 PM

mtllib ./File_Drawer.mtl
o File Drawer

g File Drawer
v 0.15 -0.025 0.05
v -0.15 -0.025 0.05
v 0.15 0.025 0.05
v -0.15 0.025 0.05
v -0.15 -0.025 -0.05
v -0.15 0.025 -0.05
v 0.15 -0.025 -0.05
v 0.15 0.025 -0.05
v -0.02370021 -1.016 0.05000001
v 0.07629979 -1.016 0.05000001
v -0.02370021 -1.066 0.05000001
v 0.07629979 -1.066 0.05000001
v 0.07629979 -1.016 -0.05000001
v 0.07629979 -1.066 -0.05000001
v -0.02370021 -1.016 -0.05000001
v -0.02370021 -1.066 -0.05000001
v -0.3737001 -1.366 0.05000001
v -0.2737001 -1.366 0.05000001
v -0.3737001 -1.416 0.05000001
v -0.2737001 -1.416 0.05000001
v -0.2737001 -1.366 -0.05000001
v -0.2737001 -1.416 -0.05000001
v -0.3737001 -1.366 -0.05000001
v -0.3737001 -1.416 -0.05000001
v -0.1987002 -1.475 0.05000001
v -0.4987002 -1.475 0.05000001
v -0.1987002 -1.425 0.05000001
v -0.4987002 -1.425 0.05000001
v -0.4987002 -1.475 -0.05000001
v -0.4987002 -1.425 -0.05000001
v -0.1987002 -1.475 -0.05000001
v -0.1987002 -1.425 -0.05000001
v -0.1987001 -0.5040002 0.05000001
v -0.4987001 -0.5040002 0.05000001
v -0.1987001 -0.454 0.05000001
v -0.4987001 -0.454 0.05000001
v -0.4987001 -0.5040002 -0.05000001
v -0.4987001 -0.454 -0.05000001
v -0.1987001 -0.5040002 -0.05000001
v -0.1987001 -0.454 -0.05000001
v -0.3737001 -0.3899998 0.05000001
v -0.2737 -0.3899998 0.05000001
v -0.3737001 -0.44 0.05000001
v -0.2737 -0.44 0.05000001
v -0.2737 -0.3899998 -0.05000001
v -0.2737 -0.44 -0.05000001
v -0.3737001 -0.3899998 -0.05000001
v -0.3737001 -0.44 -0.05000001
v -0.3737 -0.03999946 0.05000001
v -0.2737 -0.03999946 0.05000001
v -0.3737 -0.08999965 0.05000001
v -0.2737 -0.08999965 0.05000001
v -0.2737 -0.03999946 -0.05000001
v -0.2737 -0.08999965 -0.05000001
v -0.3737 -0.03999946 -0.05000001
v -0.3737 -0.08999965 -0.05000001
v -0.02370012 -0.875 0.05000001
v 0.07629988 -0.875 0.05000001
v -0.02370012 -0.9250002 0.05000001
v 0.07629988 -0.9250002 0.05000001
v 0.07629988 -0.875 -0.05000001
v 0.07629988 -0.9250002 -0.05000001
v -0.02370012 -0.875 -0.05000001
v -0.02370012 -0.9250002 -0.05000001
v -0.1487 0.02500011 0.05000001
v -0.1487001 -1.475 0.05000001
v -0.1987 0.02500011 0.05000001
v -0.1487001 -1.475 -0.05000001
v -0.1487 0.02500011 -0.05000001
v -0.1987 0.02500011 -0.05000001
v -0.2737001 -0.5749998 0.05000001
v -0.2737001 -0.875 0.05000001
v -0.3237001 -0.5749998 0.05000001
v -0.3237001 -0.875 0.05000001
v -0.2737001 -0.875 -0.05000001
v -0.3237001 -0.875 -0.05000001
v -0.2737001 -0.5749998 -0.05000001
v -0.3237001 -0.5749998 -0.05000001
v 0.07629988 -0.5749998 0.05000001
v 0.02629986 -0.5749999 0.05000001
v 0.02629986 -0.8750001 0.05000001
v 0.02629986 -0.8750001 -0.05000001
v 0.07629988 -0.5749998 -0.05000001
v 0.02629986 -0.5749999 -0.05000001
v 0.07629996 -0.08999968 0.05000001
v 0.07629994 -0.3899999 0.05000001
v 0.02629995 -0.08999968 0.05000001
v 0.02629992 -0.3899999 0.05000001
v 0.07629994 -0.3899999 -0.05000001
v 0.02629992 -0.3899999 -0.05000001
v 0.07629996 -0.08999968 -0.05000001
v 0.02629995 -0.08999968 -0.05000001
v -0.3737001 -0.875 0.05000001
v -0.3737001 -0.9250002 0.05000001
v -0.2737001 -0.9250002 0.05000001
v -0.2737001 -0.9250002 -0.05000001
v -0.3737001 -0.875 -0.05000001
v -0.3737001 -0.9250002 -0.05000001
v -0.02370006 -0.3899999 0.05000001
v -0.02370006 -0.4400001 0.05000001
v 0.07629994 -0.4400001 0.05000001
v 0.07629994 -0.4400001 -0.05000001
v -0.02370006 -0.3899999 -0.05000001
v -0.02370006 -0.4400001 -0.05000001
v -0.02370012 -0.5249996 0.05000001
v 0.07629988 -0.5249996 0.05000001
v -0.02370012 -0.5749998 0.05000001
v 0.07629988 -0.5249996 -0.05000001
v -0.02370012 -0.5249996 -0.05000001
v -0.02370012 -0.5749998 -0.05000001
v -0.3237 -0.08999965 0.05000001
v -0.3237 -0.3899998 0.05000001
v -0.3237 -0.3899998 -0.05000001
v -0.3237 -0.08999965 -0.05000001
v -0.1987 -0.02500008 0.05000001
v -0.4987001 -0.02500007 0.05000001
v -0.4987001 0.02500013 0.05000001
v -0.4987001 -0.02500007 -0.05000001
v -0.4987001 0.02500013 -0.05000001
v -0.1987 -0.02500008 -0.05000001
v 0.1499999 -0.5040002 0.05000001
v -0.1500001 -0.5040002 0.05000001
v 0.1499999 -0.454 0.05000001
v -0.1500001 -0.454 0.05000001
v -0.1500001 -0.5040002 -0.05000001
v -0.1500001 -0.454 -0.05000001
v 0.1499999 -0.5040002 -0.05000001
v 0.1499999 -0.454 -0.05000001
v 0.1499999 -1.004 0.05000001
v -0.1500001 -1.004 0.05000001
v 0.15 -0.9540001 0.05000001
v -0.15 -0.954 0.05000001
v -0.1500001 -1.004 -0.05000001
v -0.15 -0.954 -0.05000001
v 0.1499999 -1.004 -0.05000001
v 0.15 -0.9540001 -0.05000001
v -0.5487 0.02500015 0.05000001
v -0.5487002 -1.475 0.05000001
v -0.5487002 -1.475 -0.05000001
v -0.5487 0.02500015 -0.05000001
v 0.2013 0.02500008 0.05000001
v 0.2012998 -1.475 0.05000001
v 0.1513 0.02500008 0.05000001
v 0.1512998 -1.475 0.05000001
v 0.2012998 -1.475 -0.05000001
v 0.1512998 -1.475 -0.05000001
v 0.2013 0.02500008 -0.05000001
v 0.1513 0.02500008 -0.05000001
v -0.3737001 -0.5249996 0.05000001
v -0.2737001 -0.5249996 0.05000001
v -0.3737001 -0.5749998 0.05000001
v -0.2737001 -0.5249996 -0.05000001
v -0.3737001 -0.5249996 -0.05000001
v -0.3737001 -0.5749998 -0.05000001
v 0.1499998 -1.475 0.05000001
v -0.1500002 -1.475 0.05000001
v 0.1499998 -1.425 0.05000001
v -0.1500002 -1.425 0.05000001
v -0.1500002 -1.475 -0.05000001
v -0.1500002 -1.425 -0.05000001
v 0.1499998 -1.475 -0.05000001
v 0.1499998 -1.425 -0.05000001
v 0.2018 0.03000019 0.475
v 0.2017998 -1.48 0.475
v -0.5492 0.03000027 0.475
v -0.5492001 -1.48 0.475
v 0.2017998 -1.48 -0.02500001
v -0.5492001 -1.48 -0.02500001
v 0.2018 0.03000019 -0.02500001
v -0.5492 0.03000027 -0.02500001
v -0.1987001 -1.004 0.05000001
v -0.4987001 -1.004 0.05000001
v -0.1987 -0.954 0.05000001
v -0.4987 -0.954 0.05000001
v -0.4987001 -1.004 -0.05000001
v -0.4987 -0.954 -0.05000001
v -0.1987001 -1.004 -0.05000001
v -0.1987 -0.954 -0.05000001
v -0.02370021 -1.366 0.05000001
v 0.07629979 -1.366 0.05000001
v -0.02370021 -1.416 0.05000001
v 0.07629979 -1.416 0.05000001
v 0.07629979 -1.366 -0.05000001
v 0.07629979 -1.416 -0.05000001
v -0.02370021 -1.366 -0.05000001
v -0.02370021 -1.416 -0.05000001
v -0.02370003 -0.03999949 0.05000001
v 0.07629997 -0.03999949 0.05000001
v -0.02370004 -0.08999968 0.05000001
v 0.07629997 -0.03999949 -0.05000001
v -0.02370003 -0.03999949 -0.05000001
v -0.02370004 -0.08999968 -0.05000001
v -0.3737001 -1.016 0.05000001
v -0.2737001 -1.016 0.05000001
v -0.3737001 -1.066 0.05000001
v -0.2737001 -1.066 0.05000001
v -0.2737001 -1.016 -0.05000001
v -0.2737001 -1.066 -0.05000001
v -0.3737001 -1.016 -0.05000001
v -0.3737001 -1.066 -0.05000001
v 0.02629977 -1.066 0.05000001
v 0.02629977 -1.366 0.05000001
v 0.02629977 -1.366 -0.05000001
v 0.02629977 -1.066 -0.05000001
v -0.3237001 -1.066 0.05000001
v -0.3237001 -1.366 0.05000001
v -0.3237001 -1.366 -0.05000001
v -0.3237001 -1.066 -0.05000001

vt 0.15 -0.025
vt -0.15 -0.025
vt 0.15 0.025
vt -0.15 0.025
vt 0.05 -0.025
vt -0.05 -0.025
vt 0.05 0.025
vt -0.05 0.025
vt -0.15 0.05
vt 0.15 0.05
vt -0.15 -0.05
vt 0.15 -0.05
vt 0.05 -0.02499998
vt -0.05 -0.02499998
vt 0.05000001 0.02499998
vt -0.05 0.02499998
vt -0.05 0.02499998
vt 0.05 -0.02499998
vt -0.05 0.05
vt 0.05 0.05
vt -0.05 -0.05
vt 0.05 -0.05
vt 0.15 -0.02499998
vt -0.15 -0.02499998
vt 0.15 0.02499998
vt -0.15 0.02499998
vt 0.15 -0.02499995
vt -0.15 0.02500001
vt -0.15 -0.02499995
vt 0.15 0.02500001
vt 0.15 -0.05
vt 0.15 0.05
vt 0.75 -0.0250001
vt -0.75 -0.02499986
vt 0.75 0.02499986
vt -0.75 0.0250001
vt 0.05 -0.02500001
vt -0.05 -0.025
vt 0.05 0.025
vt -0.05 0.02500001
vt 0.75 -0.02499992
vt -0.75 0.02499992
vt -0.75 0.05000001
vt 0.75 0.05000001
vt -0.75 -0.05000001
vt 0.75 -0.05000001
vt 0.05 0.02499997
vt 0.15 -0.02500004
vt -0.15 -0.02500004
vt 0.1499999 0.02499998
vt -0.1499999 0.02499998
vt -0.15 0.05000001
vt -0.15 -0.05000001
vt -0.15 0.05
vt 0.15 0.05
vt -0.7499999 -0.02499986
vt -0.7499999 0.0250001
vt 0.7499999 -0.02499992
vt 0.7499999 0.02500004
vt -0.75 -0.02500004
vt 0.755 -0.3755001
vt -0.755 -0.3754998
vt 0.7550001 0.3754999
vt -0.755 0.3755001
vt 0.25 -0.3755
vt -0.2500001 -0.3755
vt 0.2500001 0.3755
vt -0.25 0.3755
vt 0.755 -0.3754998
vt 0.755 0.3755
vt -0.7550001 0.3754999
vt -0.755 0.25
vt 0.755 0.25
vt -0.755 -0.25
vt 0.755 -0.25
vt -0.15 0.04999995
vt 0.15 0.04999995
vt -0.15 -0.04999995
vt 0.15 -0.04999995

vn 0 0 1
vn -1 0 0
vn 0 0 -1
vn 1 0 0
vn 0 1 0
vn 0 -1 0

usemtl ProBuilderDefault
f 3/3/1 4/4/1 2/2/1 1/1/1
f 4/7/2 6/8/2 5/6/2 2/5/2
f 6/3/3 8/4/3 7/2/3 5/1/3
f 8/7/4 3/8/4 1/6/4 7/5/4
f 8/11/5 6/12/5 4/10/5 3/9/5
f 1/10/6 2/9/6 5/11/6 7/12/6
f 11/15/1 12/16/1 10/14/1 9/13/1
f 12/15/4 14/17/4 13/14/4 10/13/4
f 14/15/3 16/17/3 15/14/3 13/18/3
f 16/15/2 11/17/2 9/14/2 15/13/2
f 16/21/6 14/22/6 12/20/6 11/19/6
f 9/20/5 10/19/5 13/21/5 15/22/5
f 19/15/1 20/17/1 18/14/1 17/13/1
f 20/15/4 22/17/4 21/14/4 18/13/4
f 22/15/3 24/17/3 23/14/3 21/13/3
f 24/15/2 19/17/2 17/14/2 23/13/2
f 24/21/6 22/22/6 20/20/6 19/19/6
f 17/20/5 18/19/5 21/21/5 23/22/5
f 27/25/1 28/26/1 26/24/1 25/23/1
f 28/15/2 30/17/2 29/14/2 26/13/2
f 30/25/3 32/26/3 31/24/3 29/23/3
f 32/15/4 27/17/4 25/14/4 31/13/4
f 32/11/5 30/12/5 28/10/5 27/9/5
f 25/10/6 26/9/6 29/11/6 31/12/6
f 35/25/1 36/28/1 34/24/1 33/27/1
f 36/7/2 38/8/2 37/6/2 34/5/2
f 38/30/3 40/26/3 39/29/3 37/23/3
f 40/7/4 35/8/4 33/6/4 39/5/4
f 40/11/5 38/12/5 36/10/5 35/9/5
f 33/32/6 34/9/6 37/11/6 39/31/6
f 43/7/1 44/8/1 42/6/1 41/5/1
f 44/7/4 46/8/4 45/6/4 42/5/4
f 46/7/3 48/8/3 47/6/3 45/5/3
f 48/7/2 43/8/2 41/6/2 47/5/2
f 48/21/6 46/22/6 44/20/6 43/19/6
f 41/20/5 42/19/5 45/21/5 47/22/5
f 51/7/1 52/8/1 50/6/1 49/5/1
f 52/7/4 54/8/4 53/6/4 50/5/4
f 54/7/3 56/8/3 55/6/3 53/5/3
f 56/7/2 51/8/2 49/6/2 55/5/2
f 56/21/6 54/22/6 52/20/6 51/19/6
f 49/20/5 50/19/5 53/21/5 55/22/5
f 59/15/1 60/16/1 58/14/1 57/13/1
f 60/15/4 62/17/4 61/14/4 58/13/4
f 62/15/3 64/17/3 63/14/3 61/18/3
f 64/15/2 59/17/2 57/14/2 63/13/2
f 64/21/6 62/22/6 60/20/6 59/19/6
f 57/20/5 58/19/5 61/21/5 63/22/5
f 67/35/1 25/36/1 66/34/1 65/33/1
f 25/39/6 31/40/6 68/38/6 66/37/6
f 31/35/3 70/42/3 69/34/3 68/41/3
f 70/39/5 67/40/5 65/38/5 69/37/5
f 70/45/2 31/46/2 25/44/2 67/43/2
f 65/44/4 66/43/4 68/45/4 69/46/4
f 73/25/1 74/4/1 72/2/1 71/1/1
f 74/47/6 76/17/6 75/6/6 72/37/6
f 76/25/3 78/26/3 77/24/3 75/1/3
f 78/15/5 73/16/5 71/38/5 77/5/5
f 78/11/2 76/12/2 74/10/2 73/9/2
f 71/10/4 72/9/4 75/11/4 77/12/4
f 80/50/1 81/4/1 58/49/1 79/48/1
f 81/7/6 82/8/6 61/14/6 58/5/6
f 82/25/3 84/51/3 83/29/3 61/27/3
f 84/7/5 80/8/5 79/14/5 83/13/5
f 84/53/2 82/31/2 81/32/2 80/52/2
f 79/10/4 58/9/4 61/11/4 83/12/4
f 87/25/1 88/4/1 86/24/1 85/1/1
f 88/7/6 90/8/6 89/14/6 86/5/6
f 90/3/3 92/26/3 91/2/3 89/23/3
f 92/7/5 87/8/5 85/6/5 91/5/5
f 92/11/2 90/12/2 88/55/2 87/54/2
f 85/55/4 86/9/4 89/11/4 91/12/4
f 94/15/1 95/17/1 72/14/1 93/13/1
f 95/15/4 96/17/4 75/14/4 72/13/4
f 96/15/3 98/17/3 97/14/3 75/13/3
f 98/15/2 94/17/2 93/14/2 97/13/2
f 98/21/6 96/22/6 95/20/6 94/19/6
f 93/20/5 72/19/5 75/21/5 97/22/5
f 100/7/1 101/40/1 86/6/1 99/5/1
f 101/7/4 102/8/4 89/6/4 86/5/4
f 102/7/3 104/8/3 103/6/3 89/5/3
f 104/7/2 100/8/2 99/6/2 103/5/2
f 104/21/6 102/22/6 101/20/6 100/19/6
f 99/20/5 86/19/5 89/21/5 103/22/5
f 107/15/1 79/16/1 106/14/1 105/13/1
f 79/15/4 83/17/4 108/14/4 106/13/4
f 83/15/3 110/17/3 109/14/3 108/18/3
f 110/15/2 107/17/2 105/14/2 109/13/2
f 110/21/6 83/22/6 79/20/6 107/19/6
f 105/20/5 106/19/5 108/21/5 109/22/5
f 111/25/1 112/4/1 42/24/1 52/1/1
f 112/39/6 113/8/6 45/14/6 42/18/6
f 113/3/3 114/26/3 54/2/3 45/23/3
f 114/15/5 111/16/5 52/38/5 54/5/5
f 114/11/2 113/12/2 112/55/2 111/54/2
f 52/55/4 42/9/4 45/11/4 54/12/4
f 67/50/1 117/4/1 116/24/1 115/48/1
f 117/7/2 119/8/2 118/6/2 116/5/2
f 119/3/3 70/51/3 120/49/3 118/23/3
f 70/7/4 67/8/4 115/6/4 120/5/4
f 70/53/5 119/12/5 117/10/5 67/52/5
f 115/32/6 116/9/6 118/11/6 120/31/6
f 123/3/1 124/28/1 122/2/1 121/48/1
f 124/15/2 126/17/2 125/6/2 122/5/2
f 126/30/3 128/4/3 127/49/3 125/1/3
f 128/7/4 123/8/4 121/6/4 127/5/4
f 128/11/5 126/12/5 124/10/5 123/9/5
f 121/10/6 122/9/6 125/11/6 127/12/6
f 131/25/1 132/28/1 130/24/1 129/48/1
f 132/15/2 134/17/2 133/6/2 130/5/2
f 134/50/3 136/26/3 135/49/3 133/23/3
f 136/15/4 131/17/4 129/6/4 135/5/4
f 136/11/5 134/12/5 132/10/5 131/9/5
f 129/10/6 130/9/6 133/11/6 135/12/6
f 137/35/1 138/57/1 26/56/1 117/33/1
f 138/15/6 139/17/6 29/6/6 26/5/6
f 139/59/3 140/42/3 119/34/3 29/58/3
f 140/7/5 137/8/5 117/14/5 119/13/5
f 140/45/2 139/46/2 138/44/2 137/43/2
f 117/44/4 26/43/4 29/45/4 119/46/4
f 143/35/1 144/36/1 142/34/1 141/33/1
f 144/47/6 146/16/6 145/38/6 142/37/6
f 146/35/3 148/42/3 147/60/3 145/41/3
f 148/47/5 143/16/5 141/38/5 147/37/5
f 148/45/2 146/46/2 144/44/2 143/43/2
f 141/44/4 142/43/4 145/45/4 147/46/4
f 151/15/1 71/17/1 150/14/1 149/13/1
f 71/15/4 77/17/4 152/14/4 150/13/4
f 77/15/3 154/17/3 153/14/3 152/13/3
f 154/15/2 151/17/2 149/14/2 153/13/2
f 154/21/6 77/22/6 71/20/6 151/19/6
f 149/20/5 150/19/5 152/21/5 153/22/5
f 157/25/1 158/26/1 156/24/1 155/23/1
f 158/15/2 160/17/2 159/14/2 156/13/2
f 160/25/3 162/26/3 161/24/3 159/23/3
f 162/15/4 157/17/4 155/14/4 161/13/4
f 162/11/5 160/12/5 158/10/5 157/9/5
f 155/10/6 156/9/6 159/11/6 161/12/6
f 165/63/1 166/64/1 164/62/1 163/61/1
f 166/67/6 168/68/6 167/66/6 164/65/6
f 168/70/3 170/71/3 169/62/3 167/69/3
f 170/67/5 165/68/5 163/66/5 169/65/5
f 170/74/2 168/75/2 166/73/2 165/72/2
f 163/73/4 164/72/4 167/74/4 169/75/4
f 173/50/1 174/51/1 172/24/1 171/27/1
f 174/15/2 176/17/2 175/6/2 172/5/2
f 176/50/3 178/51/3 177/29/3 175/23/3
f 178/15/4 173/17/4 171/14/4 177/13/4
f 178/11/5 176/12/5 174/10/5 173/9/5
f 171/10/6 172/9/6 175/11/6 177/12/6
f 181/15/1 182/16/1 180/14/1 179/13/1
f 182/15/4 184/17/4 183/14/4 180/13/4
f 184/15/3 186/17/3 185/14/3 183/18/3
f 186/15/2 181/17/2 179/14/2 185/13/2
f 186/21/6 184/22/6 182/20/6 181/19/6
f 179/20/5 180/19/5 183/21/5 185/22/5
f 189/15/1 85/8/1 188/14/1 187/18/1
f 85/7/4 91/8/4 190/14/4 188/5/4
f 91/7/3 192/8/3 191/14/3 190/13/3
f 192/7/2 189/8/2 187/6/2 191/5/2
f 192/21/6 91/22/6 85/20/6 189/19/6
f 187/20/5 188/19/5 190/21/5 191/22/5
f 195/15/1 196/17/1 194/14/1 193/13/1
f 196/15/4 198/17/4 197/14/4 194/13/4
f 198/15/3 200/17/3 199/14/3 197/13/3
f 200/15/2 195/17/2 193/14/2 199/13/2
f 200/21/6 198/22/6 196/20/6 195/19/6
f 193/20/5 194/19/5 197/21/5 199/22/5
f 201/50/1 202/26/1 180/29/1 12/27/1
f 202/39/6 203/8/6 183/6/6 180/37/6
f 203/25/3 204/51/3 14/29/3 183/27/3
f 204/7/5 201/8/5 12/6/5 14/5/5
f 204/78/2 203/79/2 202/77/2 201/76/2
f 12/77/4 180/52/4 183/78/4 14/31/4
f 205/50/1 206/51/1 18/29/1 196/48/1
f 206/47/6 207/17/6 21/6/6 18/37/6
f 207/50/3 208/51/3 198/29/3 21/27/3
f 208/15/5 205/16/5 196/38/5 198/5/5
f 208/78/2 207/79/2 206/77/2 205/76/2
f 196/77/4 18/52/4 21/78/4 198/31/4

