# ProBuilder 5.0.7
# https://unity3d.com/unity/features/worldbuilding/probuilder
# 18/07/2023 2:43:00 PM

mtllib ./Coat_Hanger.mtl
o Coat Hanger

g Coat Hanger
v -0.05 -0.25 0
v -0.05 0.25 0
v -0.04330127 -0.25 0.025
v -0.04330127 0.25 0.025
v -0.025 -0.25 0.04330127
v -0.025 0.25 0.04330127
v 2.18557E-09 -0.25 0.05
v 2.18557E-09 0.25 0.05
v 0.025 -0.25 0.04330127
v 0.025 0.25 0.04330127
v 0.04330127 -0.25 0.025
v 0.04330127 0.25 0.025
v 0.05 -0.25 -4.371139E-09
v 0.05 0.25 -4.371139E-09
v 0.04330127 -0.25 -0.025
v 0.04330127 0.25 -0.025
v 0.025 -0.25 -0.04330127
v 0.025 0.25 -0.04330127
v -5.962441E-10 -0.25 -0.05
v -5.962441E-10 0.25 -0.05
v -0.025 -0.25 -0.04330127
v -0.025 0.25 -0.04330127
v -0.04330127 -0.25 -0.02500001
v -0.04330127 0.25 -0.02500001
v 0 -0.25 0
v 0 0.25 0
v 0.04999912 -0.2312246 -0.01877554
v 0.04999726 -0.2312231 0.4812245
v 0.04330049 -0.2062246 -0.01877558
v 0.04329863 -0.206223 0.4812244
v 0.02499931 -0.1879232 -0.0187757
v 0.02499745 -0.1879217 0.4812243
v -6.475714E-07 -0.1812243 -0.01877588
v -2.505186E-06 -0.1812228 0.4812242
v -0.02500066 -0.187923 -0.01877588
v -0.02500251 -0.1879214 0.4812241
v -0.0433021 -0.2062242 -0.01877591
v -0.04330396 -0.2062227 0.4812241
v -0.05000081 -0.2312242 -0.0187759
v -0.05000267 -0.2312227 0.4812241
v -0.0433023 -0.2562242 -0.01877584
v -0.04330415 -0.2562226 0.4812242
v -0.025001 -0.2745255 -0.01877564
v -0.02500286 -0.274524 0.4812244
v -1.043396E-06 -0.2812243 -0.01877555
v -2.901012E-06 -0.2812229 0.4812245
v 0.02499897 -0.2745257 -0.01877546
v 0.02499711 -0.2745242 0.4812247
v 0.04330029 -0.2562246 -0.01877551
v 0.04329843 -0.256223 0.4812246
v -8.454841E-07 -0.2312244 -0.01877572
v -2.703099E-06 -0.2312229 0.4812243
v -0.01887741 -0.2013686 -0.04863157
v 0.3346755 0.04863256 0.2013681
v -0.03655511 -0.1936053 -0.03139484
v 0.3169978 0.05639586 0.2186048
v -0.04949598 -0.1973957 -0.009303279
v 0.3040569 0.05260549 0.2406963
v -0.05423278 -0.2117241 0.01172379
v 0.2993202 0.03827713 0.2617234
v -0.04949601 -0.232751 0.02605218
v 0.3040569 0.01725025 0.2760517
v -0.03655499 -0.2548425 0.02984253
v 0.3169979 -0.004841328 0.2798421
v -0.01887724 -0.2720792 0.02207923
v 0.3346757 -0.02207804 0.2720789
v -0.001199537 -0.2798425 0.00484252
v 0.3523534 -0.02984133 0.2548422
v 0.01174145 -0.2760521 -0.01724903
v 0.3652943 -0.02605097 0.2327506
v 0.01647813 -0.2617238 -0.03827611
v 0.3700311 -0.01172261 0.2117235
v 0.01174136 -0.2406969 -0.05260441
v 0.3652943 0.00930436 0.1973951
v -0.001199663 -0.2186053 -0.05639485
v 0.3523533 0.03139585 0.1936048
v -0.01887733 -0.236724 -0.01327613
v 0.3346756 0.01327731 0.2367234
v 0.04999883 -1.255823 -1.032374
v 0.04999917 0.1583923 0.3818376
v 0.04330023 -1.238146 -1.050052
v 0.04330058 0.1760699 0.3641599
v 0.02499908 -1.225205 -1.062993
v 0.02499943 0.1890109 0.3512188
v -8.640258E-07 -1.220468 -1.067729
v -5.203656E-07 0.1937477 0.346482
v -0.02500088 -1.225205 -1.062993
v -0.02500054 0.1890111 0.3512187
v -0.04330235 -1.238145 -1.050052
v -0.04330201 0.1760703 0.3641596
v -0.0500011 -1.255823 -1.032374
v -0.05000076 0.1583927 0.3818372
v -0.04330262 -1.273501 -1.014696
v -0.04330228 0.140715 0.399515
v -0.02500135 -1.286442 -1.001755
v -0.02500101 0.127774 0.4124559
v -1.406622E-06 -1.291178 -0.9970187
v -1.062962E-06 0.1230372 0.4171928
v 0.02499861 -1.286442 -1.001755
v 0.02499896 0.1277738 0.4124561
v 0.04329996 -1.273501 -1.014696
v 0.0433003 0.1407147 0.3995153
v -1.135324E-06 -1.255823 -1.032374
v -7.916638E-07 0.1583925 0.3818374
v 0.01327542 -0.272078 0.02207819
v -0.3402774 -0.02207671 0.2720776
v 0.03095325 -0.2548414 0.02984144
v -0.3225997 -0.004839882 0.2798409
v 0.04389424 -0.2327498 0.02605107
v -0.3096587 0.01725158 0.2760505
v 0.04863104 -0.2117229 0.01172274
v -0.3049219 0.03827861 0.2617221
v 0.04389439 -0.1973945 -0.009304285
v -0.3096586 0.05260691 0.240695
v 0.03095348 -0.1936042 -0.03139595
v -0.3225995 0.05639729 0.2186035
v 0.01327573 -0.2013674 -0.04863263
v -0.3402772 0.04863387 0.2013667
v -0.004401983 -0.2186041 -0.05639586
v -0.3579549 0.03139731 0.1936035
v -0.01734297 -0.2406957 -0.0526056
v -0.3708959 0.009305686 0.1973938
v -0.02207977 -0.2617226 -0.03827727
v -0.3756328 -0.01172125 0.2117222
v -0.01734312 -0.276051 -0.01725015
v -0.370896 -0.02604957 0.2327492
v -0.004402214 -0.2798413 0.004841521
v -0.3579552 -0.02983986 0.2548409
v 0.01327569 -0.2367228 -0.01327717
v -0.3402773 0.01327862 0.2367221

vt -0.01294096 -0.25
vt -0.01294096 0.25
vt 0.01294095 -0.25
vt 0.01294095 0.25
vt -0.05 0
vt 0 0
vt -0.04330127 0.025
vt 0.05 0
vt 0.04330127 0.025
vt -0.025 0.04330127
vt 0.025 0.04330127
vt 2.18557E-09 0.05
vt 0.025 0.04330127
vt -0.025 0.04330127
vt 0.04330127 -0.025
vt -0.04330127 -0.025
vt 0.025 -0.04330127
vt -0.025 -0.04330127
vt -5.962441E-10 -0.05
vt -0.04330127 -0.02500001
vt 0.04330127 -0.02500001
vt -0.01294093 0.2499999
vt 0.01294087 -0.25
vt -0.01294103 -0.2499999
vt 0.01294105 0.2499998
vt -0.04330127 0.02499984
vt 0.04330127 0.02499992
vt 1.99303E-07 0.05
vt -0.05 1.937151E-07
vt 0.02500005 -0.04330128
vt -0.02500005 -0.04330125
vt 0.05 -1.788139E-07
vt -0.04634035 0.009912238
vt 0.00365964 0.009912252
vt -0.03964163 0.03491224
vt 0.04634032 0.009912223
vt -0.003659647 0.009912238
vt 0.03964159 0.03491227
vt -0.0493408 0.02560949
vt -0.006039562 0.0006094277
vt -0.03103946 0.04391071
vt 0.04934082 0.02560937
vt 0.006039547 0.0006093681
vt 0.03103956 0.04391065
vt -0.03074558 0.0385251
vt -0.005745536 -0.00477609
vt -0.005745523 0.04522391
vt 0.03074555 0.03852516
vt 0.005745539 -0.00477609
vt 0.005745495 0.04522388
vt 0.009912238 0.04634032
vt 0.009912248 -0.003659636
vt 0.03491224 0.03964165
vt -0.009912263 0.04634036
vt -0.009912265 -0.003659621
vt -0.03491217 0.03964172
vt 0.02560945 0.04934081
vt 0.0006094128 0.006039575
vt 0.04391069 0.03103951
vt -0.02560944 0.04934081
vt -0.0006094258 0.00603956
vt -0.04391073 0.03103961
vt 0.03852512 0.03074561
vt -0.004776107 0.005745575
vt 0.04522388 0.00574553
vt -0.03852516 0.03074558
vt 0.004776111 0.005745575
vt -0.04522389 0.005745575
vt 0.04634034 -0.009912238
vt -0.003659636 -0.009912252
vt 0.03964164 -0.03491226
vt -0.04634035 -0.009912238
vt 0.003659651 -0.009912238
vt -0.03964163 -0.0349122
vt 0.04934082 -0.02560937
vt 0.006039539 -0.000609383
vt 0.03103957 -0.04391067
vt -0.04934081 -0.02560946
vt -0.006039524 -0.0006094724
vt -0.03103947 -0.0439107
vt 0.03074556 -0.03852512
vt 0.005745528 0.00477609
vt 0.00574551 -0.04522391
vt -0.03074557 -0.03852515
vt -0.005745564 0.00477609
vt -0.005745495 -0.04522386
vt -0.009912268 -0.04634039
vt -0.009912242 0.003659651
vt -0.03491224 -0.03964163
vt 0.009912227 -0.04634033
vt 0.009912238 0.003659636
vt 0.03491223 -0.03964165
vt -0.02560941 -0.04934083
vt -0.0006094165 -0.006039545
vt -0.04391072 -0.03103961
vt 0.02560944 -0.04934081
vt 0.0006094463 -0.006039545
vt 0.04391069 -0.03103952
vt -0.03852517 -0.03074558
vt 0.0047761 -0.005745575
vt -0.04522389 -0.00574556
vt 0.03852516 -0.0307456
vt -0.004776102 -0.00574559
vt 0.04522385 -0.005745515
vt -0.01294088 -1
vt -0.01294091 1
vt 0.01294109 -0.9999999
vt 0.01294097 1
vt -0.01294094 -0.9999999
vt 0.01294079 -1
vt -0.01294091 0.9999999
vt 0.01294095 0.9999999
vt -1.741573E-07 -0.05

vn -1 0 -3.085363E-08
vn -0.8660254 0 0.5
vn -0.5 0 0.8660254
vn 4.628045E-08 0 1
vn 0.5 0 0.8660254
vn 0.8660254 0 0.5
vn 1 0 -7.713409E-08
vn 0.8660254 0 -0.5000001
vn 0.5 0 -0.8660254
vn 0 0 -1
vn -0.4999999 0 -0.8660254
vn -0.8660253 0 -0.5000001
vn 0 -1 0
vn 0 1 0
vn 0.866028 0.4999955 1.665127E-06
vn 0.5000045 0.8660228 -7.708196E-07
vn -0.4999965 0.8660274 -4.471342E-06
vn -0.8660241 0.5000023 -4.761869E-06
vn -0.8660274 -0.4999966 -1.621817E-06
vn -0.5000015 -0.8660246 7.68207E-07
vn 0.4999961 -0.8660277 4.430095E-06
vn 0.8660236 -0.5000031 4.790576E-06
vn -1.774084E-06 0.7071058 -0.7071077
vn -0.3535559 0.8623712 -0.362373
vn -0.6123744 0.7865646 0.07945851
vn -0.7071078 0.4999996 0.4999989
vn -0.6123724 0.07945921 0.7865661
vn -0.3535526 -0.3623716 0.8623731
vn 1.72009E-06 -0.7071058 0.7071078
vn 0.3535552 -0.8623711 0.3623738
vn 0.6123748 -0.7865642 -0.07945964
vn 0.7071078 -0.4999992 -0.4999993
vn 0.6123732 -0.07946096 -0.7865654
vn 0.3535526 0.3623716 -0.8623731
vn -0.7071062 -0.5000021 -0.4999988
vn 0.7071062 0.500002 0.4999989
vn 0.7071043 0.5000023 0.5000014
vn -0.7071043 -0.5000002 -0.5000033
vn 0.8660275 0.3535502 -0.3535514
vn 0.5000049 0.6123694 -0.6123714
vn -0.4999951 0.6123736 -0.6123753
vn -0.8660232 0.3535557 -0.3535566
vn -0.8660282 -0.3535493 0.3535506
vn -0.5000025 -0.6123704 0.6123724
vn 0.499997 -0.6123728 0.6123745
vn 0.8660227 -0.3535562 0.3535571
vn -1.68586E-06 -0.7071047 -0.7071088
vn 4.214809E-07 0.7071084 0.7071052
vn 0.3535523 -0.3623713 0.8623734
vn 0.6123723 0.07945927 0.7865663
vn 0.7071078 0.4999988 0.4999998
vn 0.6123748 0.7865642 0.07945913
vn 0.353557 0.862371 -0.3623725
vn -0.3535514 0.3623725 -0.8623732
vn -0.6123719 -0.07945842 -0.7865666
vn -0.7071077 -0.4999977 -0.5000008
vn -0.6123748 -0.7865642 -0.07945921
vn -0.3535554 -0.8623707 0.3623746
vn 0.7071024 -0.5000066 -0.4999997
vn -0.7071086 0.5000006 0.4999969
vn -0.7071053 0.5000017 0.5000004
vn 0.7071025 -0.5000041 -0.5000018

usemtl ProBuilderDefault
f 1/5/13 25/6/13 3/7/13
f 3/7/13 25/6/13 5/10/13
f 5/10/13 25/6/13 7/12/13
f 7/12/13 25/6/13 9/13/13
f 9/13/13 25/6/13 11/9/13
f 11/9/13 25/6/13 13/8/13
f 13/8/13 25/6/13 15/15/13
f 15/15/13 25/6/13 17/17/13
f 17/17/13 25/6/13 19/19/13
f 19/19/13 25/6/13 21/18/13
f 21/18/13 25/6/13 23/20/13
f 23/20/13 25/6/13 1/5/13
f 4/9/14 26/6/14 2/8/14
f 6/11/14 26/6/14 4/9/14
f 8/12/14 26/6/14 6/11/14
f 10/14/14 26/6/14 8/12/14
f 12/7/14 26/6/14 10/14/14
f 14/5/14 26/6/14 12/7/14
f 16/16/14 26/6/14 14/5/14
f 18/18/14 26/6/14 16/16/14
f 20/19/14 26/6/14 18/18/14
f 22/17/14 26/6/14 20/19/14
f 24/21/14 26/6/14 22/17/14
f 2/8/14 26/6/14 24/21/14
f 27/5/10 51/6/10 29/7/10
f 29/26/10 51/6/10 31/14/10
f 31/10/10 51/6/10 33/12/10
f 33/12/10 51/6/10 35/13/10
f 35/11/10 51/6/10 37/9/10
f 37/9/10 51/6/10 39/8/10
f 39/8/10 51/6/10 41/21/10
f 41/15/10 51/6/10 43/30/10
f 43/17/10 51/6/10 45/19/10
f 45/19/10 51/6/10 47/18/10
f 47/18/10 51/6/10 49/20/10
f 49/20/10 51/6/10 27/5/10
f 30/9/4 52/6/4 28/8/4
f 32/13/4 52/6/4 30/27/4
f 34/28/4 52/6/4 32/13/4
f 36/14/4 52/6/4 34/12/4
f 38/7/4 52/6/4 36/10/4
f 40/29/4 52/6/4 38/7/4
f 42/16/4 52/6/4 40/5/4
f 44/31/4 52/6/4 42/16/4
f 46/19/4 52/6/4 44/18/4
f 48/17/4 52/6/4 46/19/4
f 50/21/4 52/6/4 48/17/4
f 28/32/4 52/6/4 50/15/4
f 53/33/35 77/34/35 55/35/35
f 55/39/35 77/40/35 57/41/35
f 57/45/38 77/46/38 59/47/38
f 59/51/35 77/52/35 61/53/35
f 61/57/35 77/58/35 63/59/35
f 63/63/35 77/64/35 65/65/35
f 65/69/35 77/70/35 67/71/35
f 67/75/38 77/76/38 69/77/38
f 69/81/38 77/82/38 71/83/38
f 71/87/35 77/88/35 73/89/35
f 73/93/35 77/94/35 75/95/35
f 75/99/35 77/100/35 53/101/35
f 56/38/36 78/37/36 54/36/36
f 58/44/37 78/43/37 56/42/37
f 60/50/37 78/49/37 58/48/37
f 62/56/36 78/55/36 60/54/36
f 64/62/36 78/61/36 62/60/36
f 66/68/36 78/67/36 64/66/36
f 68/74/36 78/73/36 66/72/36
f 70/80/36 78/79/36 68/78/36
f 72/86/37 78/85/37 70/84/37
f 74/92/36 78/91/36 72/90/36
f 76/98/36 78/97/36 74/96/36
f 54/104/36 78/103/36 76/102/36
f 79/5/47 103/6/47 81/7/47
f 81/26/47 103/6/47 83/14/47
f 83/10/47 103/6/47 85/12/47
f 85/12/47 103/6/47 87/13/47
f 87/11/47 103/6/47 89/9/47
f 89/9/47 103/6/47 91/8/47
f 91/8/47 103/6/47 93/21/47
f 93/15/47 103/6/47 95/30/47
f 95/17/47 103/6/47 97/19/47
f 97/19/47 103/6/47 99/18/47
f 99/18/47 103/6/47 101/16/47
f 101/20/47 103/6/47 79/5/47
f 82/9/48 104/6/48 80/8/48
f 84/13/48 104/6/48 82/27/48
f 86/12/48 104/6/48 84/13/48
f 88/14/48 104/6/48 86/12/48
f 90/7/48 104/6/48 88/10/48
f 92/29/48 104/6/48 90/7/48
f 94/20/48 104/6/48 92/5/48
f 96/31/48 104/6/48 94/16/48
f 98/113/48 104/6/48 96/18/48
f 100/17/48 104/6/48 98/19/48
f 102/21/48 104/6/48 100/17/48
f 80/32/48 104/6/48 102/21/48
f 105/68/59 129/67/59 107/66/59
f 107/62/59 129/61/59 109/60/59
f 109/56/59 129/55/59 111/54/59
f 111/50/59 129/49/59 113/48/59
f 113/44/59 129/43/59 115/42/59
f 115/38/62 129/37/62 117/36/62
f 117/104/59 129/103/59 119/102/59
f 119/98/59 129/97/59 121/96/59
f 121/92/59 129/91/59 123/90/59
f 123/86/59 129/85/59 125/84/59
f 125/80/59 129/79/59 127/78/59
f 127/74/59 129/73/59 105/72/59
f 108/63/60 130/64/60 106/65/60
f 110/57/60 130/58/60 108/59/60
f 112/51/60 130/52/60 110/53/60
f 114/45/60 130/46/60 112/47/60
f 116/39/61 130/40/61 114/41/61
f 118/33/60 130/34/60 116/35/60
f 120/99/60 130/100/60 118/101/60
f 122/93/60 130/94/60 120/95/60
f 124/87/60 130/88/60 122/89/60
f 126/81/61 130/82/61 124/83/61
f 128/75/60 130/76/60 126/77/60
f 106/69/61 130/70/61 128/71/61
f 4/4/2 2/2/1 1/1/1
f 1/1/1 3/3/2 4/4/2
f 6/4/3 4/2/2 3/1/2
f 3/1/2 5/3/3 6/4/3
f 8/4/4 6/2/3 5/1/3
f 5/1/3 7/3/4 8/4/4
f 10/4/5 8/2/4 7/1/4
f 7/1/4 9/3/5 10/4/5
f 12/4/6 10/2/5 9/1/5
f 9/1/5 11/3/6 12/4/6
f 14/4/7 12/2/6 11/1/6
f 11/1/6 13/3/7 14/4/7
f 16/4/8 14/2/7 13/1/7
f 13/1/7 15/3/8 16/4/8
f 18/4/9 16/2/8 15/1/8
f 15/1/8 17/3/9 18/4/9
f 20/4/10 18/2/9 17/1/9
f 17/1/9 19/3/10 20/4/10
f 22/4/11 20/2/10 19/1/10
f 19/1/10 21/3/11 22/4/11
f 24/4/12 22/2/11 21/1/11
f 21/1/11 23/3/12 24/4/12
f 2/4/1 24/2/12 23/1/12
f 23/1/12 1/3/1 2/4/1
f 30/4/15 28/22/7 27/1/7
f 27/1/7 29/23/15 30/4/15
f 32/25/16 30/22/15 29/24/15
f 29/24/15 31/3/16 32/25/16
f 34/25/14 32/22/16 31/24/16
f 31/24/16 33/3/14 34/25/14
f 36/25/17 34/2/14 33/1/14
f 33/1/14 35/3/17 36/25/17
f 38/4/18 36/22/17 35/24/17
f 35/24/17 37/3/18 38/4/18
f 40/25/1 38/2/18 37/24/18
f 37/24/18 39/3/1 40/25/1
f 42/25/19 40/22/1 39/24/1
f 39/24/1 41/3/19 42/25/19
f 44/25/20 42/22/19 41/1/19
f 41/1/19 43/23/20 44/25/20
f 46/4/13 44/22/20 43/1/20
f 43/1/20 45/23/13 46/4/13
f 48/4/21 46/22/13 45/1/13
f 45/1/13 47/23/21 48/4/21
f 50/25/22 48/22/21 47/24/21
f 47/24/21 49/3/22 50/25/22
f 28/25/7 50/22/22 49/1/22
f 49/1/22 27/23/7 28/25/7
f 56/25/24 54/22/23 53/24/23
f 53/24/23 55/23/24 56/25/24
f 58/25/25 56/2/24 55/1/24
f 55/1/24 57/3/25 58/25/25
f 60/25/26 58/22/25 57/24/25
f 57/24/25 59/3/26 60/25/26
f 62/4/27 60/2/26 59/1/26
f 59/1/26 61/23/27 62/4/27
f 64/25/28 62/22/27 61/1/27
f 61/1/27 63/3/28 64/25/28
f 66/25/29 64/22/28 63/24/28
f 63/24/28 65/23/29 66/25/29
f 68/25/30 66/2/29 65/1/29
f 65/1/29 67/3/30 68/25/30
f 70/4/31 68/2/30 67/1/30
f 67/1/30 69/23/31 70/4/31
f 72/4/32 70/22/31 69/24/31
f 69/24/31 71/23/32 72/4/32
f 74/4/33 72/2/32 71/1/32
f 71/1/32 73/3/33 74/4/33
f 76/25/34 74/2/33 73/24/33
f 73/24/33 75/23/34 76/25/34
f 54/25/23 76/22/34 75/24/34
f 75/24/34 53/23/23 54/25/23
f 82/108/39 80/106/7 79/105/7
f 79/105/7 81/107/39 82/108/39
f 84/108/40 82/106/39 81/109/39
f 81/109/39 83/110/40 84/108/40
f 86/108/23 84/106/40 83/105/40
f 83/105/40 85/110/23 86/108/23
f 88/112/41 86/111/23 85/105/23
f 85/105/23 87/110/41 88/112/41
f 90/108/42 88/106/41 87/109/41
f 87/109/41 89/107/42 90/108/42
f 92/112/1 90/111/42 89/105/42
f 89/105/42 91/110/1 92/112/1
f 94/108/43 92/106/1 91/105/1
f 91/105/1 93/110/43 94/108/43
f 96/112/44 94/106/43 93/109/43
f 93/109/43 95/107/44 96/112/44
f 98/108/29 96/106/44 95/105/44
f 95/105/44 97/110/29 98/108/29
f 100/108/45 98/106/29 97/105/29
f 97/105/29 99/110/45 100/108/45
f 102/108/46 100/111/45 99/109/45
f 99/109/45 101/107/46 102/108/46
f 80/112/7 102/106/46 101/105/46
f 101/105/46 79/110/7 80/112/7
f 108/4/49 106/22/29 105/24/29
f 105/24/29 107/3/49 108/4/49
f 110/4/50 108/2/49 107/1/49
f 107/1/49 109/23/50 110/4/50
f 112/25/51 110/2/50 109/1/50
f 109/1/50 111/3/51 112/25/51
f 114/25/52 112/2/51 111/1/51
f 111/1/51 113/3/52 114/25/52
f 116/4/53 114/22/52 113/24/52
f 113/24/52 115/3/53 116/4/53
f 118/25/23 116/2/53 115/1/53
f 115/1/53 117/23/23 118/25/23
f 120/4/54 118/22/23 117/24/23
f 117/24/23 119/3/54 120/4/54
f 122/25/55 120/2/54 119/1/54
f 119/1/54 121/3/55 122/25/55
f 124/4/56 122/2/55 121/1/55
f 121/1/55 123/3/56 124/4/56
f 126/25/57 124/2/56 123/24/56
f 123/24/56 125/23/57 126/25/57
f 128/4/58 126/22/57 125/1/57
f 125/1/57 127/23/58 128/4/58
f 106/25/29 128/2/58 127/1/58
f 127/1/58 105/3/29 106/25/29

