# ProBuilder 5.0.7
# https://unity3d.com/unity/features/worldbuilding/probuilder
# 18/07/2023 2:35:51 PM

mtllib ./Office_Table.mtl
o Office Table

g Office Table
v 0.05 -0.375 0.375
v -0.05 -0.375 0.375
v 0.05 0.375 0.375
v -0.05 0.375 0.375
v -0.05 -0.375 -0.375
v -0.05 0.375 -0.375
v 0.05 -0.375 -0.375
v 0.05 0.375 -0.375
v -1.35 -0.375 0.375
v -1.45 -0.375 0.375
v -1.35 0.375 0.375
v -1.45 0.375 0.375
v -1.45 -0.375 -0.375
v -1.45 0.375 -0.375
v -1.35 -0.375 -0.375
v -1.35 0.375 -0.375
v -1.45 0.375 0.375
v 0.05000001 0.425 0.375
v -1.45 0.425 0.375
v -1.45 0.375 -0.375
v -1.45 0.425 -0.375
v 0.05000001 0.425 -0.375

vt 0.05 -0.375
vt -0.05 -0.375
vt 0.05 0.375
vt -0.05 0.375
vt 0.375 -0.375
vt -0.375 -0.375
vt 0.375 0.375
vt -0.375 0.375
vt 0.04999995 -0.375
vt 0.04999995 0.375
vt -0.04999995 -0.375
vt -0.04999995 0.375
vt 0.7500001 -0.02500001
vt -0.75 -0.02500001
vt 0.7500001 0.02500001
vt -0.75 0.02500001
vt 0.375 -0.02500001
vt -0.375 -0.02500001
vt 0.375 0.02500001
vt -0.375 0.02500001
vt -0.7500001 0.375
vt 0.75 0.375
vt -0.7500001 -0.375
vt 0.75 -0.375

vn 0 0 1
vn -1 0 0
vn 0 0 -1
vn 1 0 0
vn 0 1 0
vn 0 -1 0

usemtl ProBuilderDefault
f 3/3/1 4/4/1 2/2/1 1/1/1
f 4/7/2 6/8/2 5/6/2 2/5/2
f 6/3/3 8/4/3 7/2/3 5/1/3
f 8/7/4 3/8/4 1/6/4 7/5/4
f 8/2/5 6/1/5 4/3/5 3/4/5
f 1/3/6 2/4/6 5/2/6 7/1/6
f 11/10/1 12/4/1 10/2/1 9/9/1
f 12/7/2 14/8/2 13/6/2 10/5/2
f 14/3/3 16/12/3 15/11/3 13/1/3
f 16/7/4 11/8/4 9/6/4 15/5/4
f 16/11/5 14/1/5 12/3/5 11/12/5
f 9/10/6 10/4/6 13/2/6 15/9/6
f 18/15/1 19/16/1 17/14/1 3/13/1
f 19/19/2 21/20/2 20/18/2 17/17/2
f 21/15/3 22/16/3 8/14/3 20/13/3
f 22/19/4 18/20/4 3/18/4 8/17/4
f 22/23/5 21/24/5 19/22/5 18/21/5
f 3/22/6 17/21/6 20/23/6 8/24/6

