# ProBuilder 5.0.7
# https://unity3d.com/unity/features/worldbuilding/probuilder
# 18/07/2023 2:38:44 PM

mtllib ./Wooden_Chair.mtl
o Wooden Chair

g Wooden Chair
v 0.225 -0.175 0.02
v -0.225 -0.175 0.02
v 0.225 0.175 0.02
v -0.225 0.175 0.02
v -0.225 -0.175 -0.02
v -0.225 0.175 -0.02
v 0.225 -0.175 -0.02
v 0.225 0.175 -0.02
v -0.1625001 -0.734 0.03849995
v -0.2375 -0.734 0.03849995
v -0.1625001 -0.334 0.03849995
v -0.2375 -0.334 0.03849995
v -0.2375 -0.734 -0.0365001
v -0.2375 -0.334 -0.0365001
v -0.1625001 -0.734 -0.0365001
v -0.1625001 -0.334 -0.0365001
v 0.2375 -0.734 0.4385
v 0.1625001 -0.734 0.4385
v 0.2375 -0.334 0.4385
v 0.1625001 -0.334 0.4385
v 0.1625001 -0.734 0.3635
v 0.1625001 -0.334 0.3635
v 0.2375 -0.734 0.3635
v 0.2375 -0.334 0.3635
v 0.25 -0.234 0.0009999275
v 0.1500001 -0.234 0.0009999275
v 0.25 0.166 0.0009999275
v 0.1500001 0.166 0.0009999275
v 0.1500001 -0.234 -0.04900002
v 0.1500001 0.166 -0.04900002
v 0.25 -0.234 -0.04900002
v 0.25 0.166 -0.04900002
v 0.2375 -0.734 0.03849995
v 0.1625001 -0.734 0.03849995
v 0.2375 -0.334 0.03849995
v 0.1625001 -0.334 0.03849995
v 0.1625001 -0.734 -0.0365001
v 0.1625001 -0.334 -0.0365001
v 0.2375 -0.734 -0.0365001
v 0.2375 -0.334 -0.0365001
v -0.1500001 -0.234 0.0009999275
v -0.25 -0.234 0.0009999275
v -0.1500001 0.166 0.0009999275
v -0.25 0.166 0.0009999275
v -0.25 -0.234 -0.04900002
v -0.25 0.166 -0.04900002
v -0.1500001 -0.234 -0.04900002
v -0.1500001 0.166 -0.04900002
v -0.1625001 -0.734 0.4385
v -0.2375 -0.734 0.4385
v -0.1625001 -0.334 0.4385
v -0.2375 -0.334 0.4385
v -0.2375 -0.734 0.3635
v -0.2375 -0.334 0.3635
v -0.1625001 -0.734 0.3635
v -0.1625001 -0.334 0.3635
v 0.25 -0.334 0.451
v -0.25 -0.334 0.451
v 0.25 -0.284 0.451
v -0.25 -0.284 0.451
v -0.25 -0.334 -0.04900002
v 0.25 -0.334 -0.04900002
v 0.25 -0.234 0.401
v -0.25 -0.234 0.401

vt 0.225 -0.175
vt -0.225 -0.175
vt 0.225 0.175
vt -0.225 0.175
vt 0.02 -0.175
vt -0.02 -0.175
vt 0.02 0.175
vt -0.02 0.175
vt -0.225 0.02
vt 0.225 0.02
vt -0.225 -0.02
vt 0.225 -0.02
vt 0.03750001 -0.2
vt -0.03750001 -0.2
vt 0.03750001 0.2
vt -0.03750001 0.2
vt -0.03750001 0.0375
vt 0.03750001 0.0375
vt -0.03750001 -0.0375
vt 0.03750001 -0.0375
vt 0.03749999 -0.2
vt -0.03749999 -0.2
vt 0.03749999 0.2
vt -0.03749999 0.2
vt -0.03750001 0.03749999
vt 0.03750001 0.03749999
vt -0.03750001 -0.03749999
vt 0.03750001 -0.03749999
vt 0.05 -0.2
vt -0.05 -0.2
vt 0.05 0.2
vt -0.05 0.2
vt 0.025 -0.2
vt -0.025 -0.2
vt 0.025 0.2
vt -0.025 0.2
vt 0.025 -0.2
vt -0.025 -0.2
vt 0.025 0.2
vt -0.025 0.2
vt -0.05 0.025
vt 0.05 0.025
vt -0.05 -0.025
vt 0.05 -0.025
vt 0.25 -0.05
vt -0.25 -0.05
vt 0.25 0
vt -0.25 0
vt 0.25 0.05
vt -0.25 0.05
vt -0.25 0.2
vt 0.25 0.2
vt -0.25 -0.25
vt 0.25 -0.25
vt 0.25 0.25
vt -0.25 0.25
vt -0.25 -0.1767767
vt 0.25 -0.1767768
vt -0.25 -0.1060659
vt 0.25 -0.106066
vt 0.2 0.05
vt -0.2 0.05

vn 0 0 1
vn -1 0 0
vn 0 0 -1
vn 1 0 0
vn 0 1 0
vn 0 -1 0
vn 0 0.7071068 0.7071068

usemtl ProBuilderDefault
f 58/45/2 60/47/2 64/61/2
f 64/61/2 61/46/2 58/45/2
f 64/61/2 45/50/2 61/46/2
f 62/45/4 31/49/4 63/62/4
f 57/46/4 62/45/4 63/62/4
f 63/62/4 59/48/4 57/46/4
f 4/4/1 2/2/1 1/1/1
f 1/1/1 3/3/1 4/4/1
f 6/8/2 5/6/2 2/5/2
f 2/5/2 4/7/2 6/8/2
f 8/4/3 7/2/3 5/1/3
f 5/1/3 6/3/3 8/4/3
f 3/8/4 1/6/4 7/5/4
f 7/5/4 8/7/4 3/8/4
f 6/12/5 4/10/5 3/9/5
f 3/9/5 8/11/5 6/12/5
f 2/9/6 5/11/6 7/12/6
f 7/12/6 1/10/6 2/9/6
f 12/16/1 10/14/1 9/13/1
f 9/13/1 11/15/1 12/16/1
f 14/16/2 13/14/2 10/13/2
f 10/13/2 12/15/2 14/16/2
f 16/16/3 15/14/3 13/13/3
f 13/13/3 14/15/3 16/16/3
f 11/16/4 9/14/4 15/13/4
f 15/13/4 16/15/4 11/16/4
f 14/20/5 12/18/5 11/17/5
f 11/17/5 16/19/5 14/20/5
f 10/17/6 13/19/6 15/20/6
f 15/20/6 9/18/6 10/17/6
f 20/16/1 18/14/1 17/13/1
f 17/13/1 19/15/1 20/16/1
f 22/24/2 21/22/2 18/21/2
f 18/21/2 20/23/2 22/24/2
f 24/16/3 23/14/3 21/13/3
f 21/13/3 22/15/3 24/16/3
f 19/24/4 17/22/4 23/21/4
f 23/21/4 24/23/4 19/24/4
f 22/28/5 20/26/5 19/25/5
f 19/25/5 24/27/5 22/28/5
f 18/25/6 21/27/6 23/28/6
f 23/28/6 17/26/6 18/25/6
f 28/32/1 26/30/1 25/29/1
f 25/29/1 27/31/1 28/32/1
f 30/36/2 29/34/2 26/33/2
f 26/33/2 28/35/2 30/36/2
f 32/32/3 31/30/3 29/29/3
f 29/29/3 30/31/3 32/32/3
f 27/40/4 25/38/4 31/37/4
f 31/37/4 32/39/4 27/40/4
f 30/44/5 28/42/5 27/41/5
f 27/41/5 32/43/5 30/44/5
f 26/41/6 29/43/6 31/44/6
f 31/44/6 25/42/6 26/41/6
f 36/16/1 34/14/1 33/13/1
f 33/13/1 35/15/1 36/16/1
f 38/16/2 37/14/2 34/13/2
f 34/13/2 36/15/2 38/16/2
f 40/16/3 39/14/3 37/13/3
f 37/13/3 38/15/3 40/16/3
f 35/16/4 33/14/4 39/13/4
f 39/13/4 40/15/4 35/16/4
f 38/20/5 36/18/5 35/17/5
f 35/17/5 40/19/5 38/20/5
f 34/17/6 37/19/6 39/20/6
f 39/20/6 33/18/6 34/17/6
f 44/32/1 42/30/1 41/29/1
f 41/29/1 43/31/1 44/32/1
f 46/36/2 45/34/2 42/33/2
f 42/33/2 44/35/2 46/36/2
f 48/32/3 47/30/3 45/29/3
f 45/29/3 46/31/3 48/32/3
f 43/40/4 41/38/4 47/37/4
f 47/37/4 48/39/4 43/40/4
f 46/44/5 44/42/5 43/41/5
f 43/41/5 48/43/5 46/44/5
f 42/41/6 45/43/6 47/44/6
f 47/44/6 41/42/6 42/41/6
f 52/16/1 50/14/1 49/13/1
f 49/13/1 51/15/1 52/16/1
f 54/24/2 53/22/2 50/21/2
f 50/21/2 52/23/2 54/24/2
f 56/16/3 55/14/3 53/13/3
f 53/13/3 54/15/3 56/16/3
f 51/24/4 49/22/4 55/21/4
f 55/21/4 56/23/4 51/24/4
f 54/28/5 52/26/5 51/25/5
f 51/25/5 56/27/5 54/28/5
f 50/25/6 53/27/6 55/28/6
f 55/28/6 49/26/6 50/25/6
f 60/48/1 58/46/1 57/45/1
f 57/45/1 59/47/1 60/48/1
f 31/50/3 62/46/3 61/45/3
f 61/45/3 45/49/3 31/50/3
f 45/54/5 64/52/5 63/51/5
f 63/51/5 31/53/5 45/54/5
f 58/56/6 61/53/6 62/54/6
f 62/54/6 57/55/6 58/56/6
f 64/59/7 60/57/7 59/58/7
f 59/58/7 63/60/7 64/59/7

