# ProBuilder 5.0.7
# https://unity3d.com/unity/features/worldbuilding/probuilder
# 18/07/2023 3:09:38 PM

mtllib ./Prop_CigeretteVending_1.mtl
o Prop_CigeretteVending_1

g Prop_CigeretteVending_1
v 2.522619 0 0.9853992
v 2.522619 0 0.7706008
v 2.522619 0.3791245 0.7706008
v 2.522619 0.3791245 0.9853992
v 3.266207 0 0.9853992
v 3.266207 0.3791245 0.9853992
v 3.266207 0.3791245 0.7706008
v 3.266207 0 0.7706008
v 2.593127 1.333712 0.9853992
v 2.555393 1.333712 0.9853992
v 2.555393 1.333712 0.7706008
v 2.593127 1.333712 0.7706008
v 2.593127 0 0.7706008
v 2.593127 0 0.9853992
v 2.593127 0.3791245 0.9853992
v 2.593127 0.3791245 0.7706008
v 2.522619 0.3791245 1.000331
v 2.593127 0.3791245 1.000331
v 2.522619 0.8400011 0.9853992
v 2.593127 0.8400011 0.9853992
v 2.593127 0.8400011 1.000331
v 2.522619 0.8400011 1.000331
v 3.200674 1.333712 0.7706008
v 3.200674 1.333712 0.9853992
v 3.233433 1.333712 0.7706008
v 3.233433 1.333712 0.9853992
v 3.200674 0 0.9853992
v 3.200674 0 0.7706008
v 3.200674 0.3791245 0.9853992
v 3.200674 0.3791245 0.7706008
v 3.200674 0.3791245 1.000331
v 3.266207 0.3791245 1.000331
v 2.649724 0.8918341 0.9853992
v 3.144076 0.8918341 0.9853992
v 3.144076 0.8918341 1.000331
v 2.649724 0.8918341 1.000331
v 3.200674 0.8400011 0.9853992
v 3.266207 0.8400011 0.9853992
v 3.266207 0.8400011 1.000331
v 3.200674 0.8400011 1.000331
v 2.522619 0.5576845 0.7706008
v 2.522619 0.5576845 0.9853992
v 2.522619 0.8400011 0.7706008
v 3.266207 0.5576845 0.9853992
v 3.266207 0.5576845 0.7706008
v 3.266207 0.8400011 0.7706008
v 2.522619 0.5576845 1.000331
v 3.266207 0.5576845 1.000331
v 2.593127 0.5576845 1.000331
v 2.593127 0.5576845 0.7706008
v 2.593127 0.8400011 0.7706008
v 3.200674 0.5576845 1.000331
v 3.195893 0.3985589 0.9560935
v 2.597907 0.3985589 0.9560935
v 2.597907 0.5253673 0.9560935
v 3.195893 0.5253673 0.9560935
v 2.593127 0.5576845 1.029691
v 2.593127 0.8400011 1.029691
v 3.200674 0.8400011 1.029691
v 3.200674 0.5576845 1.029691
v 3.200674 0.5576845 0.7706008
v 3.200674 0.8400011 0.7706008
v 2.649724 0.8918341 1.029691
v 3.144076 0.8918341 1.029691
v 3.200674 0.3791245 1.050245
v 2.593127 0.3791245 1.050245
v 3.195893 0.3985589 1.050245
v 2.597907 0.3985589 1.050245
v 2.597907 0.3985589 1.000331
v 2.597907 0.5253673 1.000331
v 3.195893 0.5253673 1.000331
v 3.195893 0.3985589 1.000331
v 3.216708 0.3985589 1.000331
v 3.221821 0.3791245 1.000331
v 3.216708 0.3985589 1.050245
v 3.221821 0.3791245 1.050245
v 2.571979 0.3791245 1.000331
v 2.577092 0.3985589 1.000331
v 2.571979 0.3791245 1.050245
v 2.577092 0.3985589 1.050245
v 2.597907 0.4215397 1.000331
v 2.597907 0.4215397 1.050245
v 2.577092 0.4215397 1.000331
v 2.577092 0.4215397 1.050245
v 3.195893 0.4215397 1.050245
v 3.195893 0.4215397 1.000331
v 3.216708 0.4215397 1.050245
v 3.216708 0.4215397 1.000331
v 2.522619 1.299938 0.7706008
v 2.522619 1.300938 0.7706008
v 2.522619 1.300938 0.9853992
v 2.522619 1.299938 0.9853992
v 3.266207 1.299938 0.9853992
v 3.266207 1.300938 0.9853992
v 3.266207 1.300938 0.7706008
v 3.266207 1.299938 0.7706008
v 3.200674 1.299938 0.9853992
v 2.593127 1.299938 0.9853992
v 2.593127 1.299938 0.7706008
v 3.200674 1.299938 0.7706008
v 2.522619 0.9021158 0.7706008
v 2.522619 0.9021158 0.9853992
v 3.266207 0.9021158 0.9853992
v 3.266207 0.9021158 0.7706008
v 2.593127 0.9021158 0.9853992
v 2.593127 0.9021158 0.7706008
v 3.200674 0.9021158 0.9853992
v 2.593127 0.9021158 0.9461583
v 2.593127 1.299938 0.9461583
v 3.200674 1.299938 0.9461583
v 3.200674 0.9021158 0.9461583
v 3.200674 0.9021158 0.7706008

vt 0.1073992 -0.6027799
vt -0.1073992 -0.6027799
vt -0.1073992 -0.2236554
vt 0.1073992 -0.2236554
vt 0.3012865 0.1073992
vt 0.3390202 0.1073992
vt 0.3390202 -0.1073992
vt 0.3012865 -0.1073992
vt -0.3012865 -0.1073992
vt -0.3717936 -0.1073992
vt -0.3717936 0.1073992
vt -0.3012865 0.1073992
vt -0.3012865 -0.6027799
vt -0.3717936 -0.6027799
vt -0.3717937 -0.2236554
vt -0.3012865 -0.2236554
vt 0.3012865 -0.2236554
vt 0.3717937 -0.2236554
vt 0.3717936 -0.6027799
vt 0.3012865 -0.6027799
vt -0.3717937 0.1223313
vt -0.3012865 0.1223313
vt 0.3717937 0.1073992
vt 0.3012865 0.1223313
vt 0.3717937 0.1223313
vt -0.3062606 -0.1073992
vt -0.3062606 0.1073992
vt -0.3390202 -0.1073992
vt -0.3390202 0.1073992
vt 0.3062606 0.1073992
vt 0.3062606 -0.1073992
vt 0.3717936 -0.1073992
vt 0.3062606 -0.6027799
vt 0.3062606 -0.2236554
vt -0.3062606 -0.2236554
vt -0.3062606 -0.6027799
vt 0.3062606 0.1223313
vt 0.2446892 0.1073992
vt -0.2496634 0.1073992
vt -0.2496634 0.1223313
vt 0.2446892 0.1223313
vt -0.3062606 0.1223313
vt -0.1073992 -0.0450953
vt 0.1073992 -0.0450953
vt -0.1073992 0.2372213
vt 0.1073992 0.2372213
vt 0.1223313 -0.04509532
vt 0.1223313 -0.2236554
vt 0.1223313 0.2372212
vt -0.1223313 -0.04509532
vt -0.1223313 0.2372212
vt -0.1223313 -0.2236554
vt -0.3717937 -0.04509532
vt -0.3012865 -0.04509532
vt -0.3717937 0.2372212
vt -0.3012865 0.2372212
vt 0.3012865 -0.04509532
vt 0.3717937 -0.04509532
vt 0.3012865 0.2372212
vt 0.3717937 0.2372212
vt 0.3062606 -0.04509532
vt 0.3062606 0.2372212
vt 0.3014803 -0.204221
vt -0.2965059 -0.204221
vt -0.2965059 -0.07741255
vt 0.3014803 -0.07741255
vt -0.3062606 -0.04509532
vt -0.3062606 0.2372212
vt 0.3062606 0.1516914
vt -0.3012865 0.1516914
vt 0.1516914 -0.04509532
vt 0.1516914 0.2372212
vt -0.1516914 0.2372212
vt -0.1516914 -0.04509532
vt 0.2446892 0.1516914
vt -0.2496634 0.1516914
vt 0.2446892 0.2890543
vt -0.2496634 0.2890543
vt -0.0656402 0.1073992
vt -0.0656402 0.1223313
vt 0.01110555 0.1073992
vt 0.01110555 0.1223313
vt 0.06197196 0.1223313
vt 0.06197196 0.1073992
vt -0.01477379 0.1223313
vt -0.01477379 0.1073992
vt 0.06197195 0.1516914
vt -0.0147738 0.1516914
vt -0.06564019 0.1516914
vt 0.01110556 0.1516914
vt 0.2496634 0.2890543
vt -0.2446892 0.2890543
vt 0.2965059 0.1223313
vt -0.3014803 0.07809353
vt 0.2965059 0.07809353
vt -0.1223313 -0.204221
vt -0.1223313 -0.07741255
vt -0.07809353 -0.204221
vt -0.07809353 -0.07741255
vt 0.1223313 -0.07741255
vt 0.1223313 -0.204221
vt 0.07809353 -0.07741255
vt 0.07809353 -0.204221
vt -0.2965059 0.1223313
vt -0.2965059 0.07809353
vt 0.3014803 0.07809353
vt 0.3062606 0.172245
vt -0.3012865 0.172245
vt -0.1223313 -0.279504
vt -0.1223313 -0.2995998
vt -0.172245 -0.279504
vt -0.172245 -0.2995998
vt 0.1223313 -0.2983371
vt 0.1223313 -0.2782413
vt 0.172245 -0.2983371
vt 0.172245 -0.2782413
vt 0.2965059 0.172245
vt 0.2965059 -0.204221
vt 0.3224342 -0.2236554
vt 0.3173208 -0.204221
vt -0.3224342 0.172245
vt -0.3224342 0.1223313
vt 0.3173208 0.1223313
vt 0.3173208 0.172245
vt -0.3173208 -0.204221
vt -0.3224342 -0.2236554
vt -0.3014803 -0.204221
vt -0.3222952 -0.204221
vt -0.3274083 -0.2236554
vt 0.3274083 0.1223313
vt 0.3274083 0.172245
vt 0.3274083 -0.2236554
vt 0.3222952 -0.204221
vt 0.172245 -0.204221
vt 0.172245 -0.1812402
vt 0.1223313 -0.1812402
vt 0.3222952 -0.1812402
vt 0.3014803 -0.1812402
vt -0.3014803 -0.1812402
vt -0.3222952 -0.1812402
vt -0.172245 -0.204221
vt -0.1223313 -0.1812402
vt -0.172245 -0.1812402
vt 0.3173208 -0.1812402
vt 0.2965059 -0.1812402
vt -0.2965059 -0.1812402
vt -0.3173208 -0.1812402
vt -0.1073992 0.6971582
vt -0.1073992 0.6981582
vt 0.1073992 0.6981582
vt 0.1073992 0.6971582
vt 0.3062606 0.7309318
vt 0.3062606 0.6971582
vt -0.3012865 0.6971582
vt -0.3012865 0.7309318
vt -0.3062606 0.7309318
vt 0.3012865 0.7309318
vt 0.3012865 0.6971582
vt -0.3062606 0.6971582
vt -0.1073992 0.299336
vt 0.1073992 0.299336
vt -0.3717937 0.299336
vt -0.3012865 0.299336
vt -0.3717937 0.6971582
vt 0.3012865 0.299336
vt 0.3717937 0.299336
vt 0.3717937 0.6971582
vt 0.3062606 0.299336
vt -0.3062606 0.299336
vt -0.3062606 0.06815827
vt 0.3012865 0.06815827
vt 0.06815827 0.6971582
vt 0.06815827 0.299336
vt -0.06815827 0.299336
vt -0.06815827 0.6971582
vt -0.3012865 0.06815827
vt 0.3062606 0.06815827
vt 0.2771233 -0.1073992
vt 0.2771233 0.1073992
vt 0.2307745 -0.1073992
vt 0.2307745 0.1073992
vt -0.3717937 0.6981582
vt -0.3390202 0.7309318
vt 0.3390202 0.7309318
vt 0.3717937 0.6981582
vt -0.2771233 0.1073992
vt -0.2771233 -0.1073992
vt -0.2307745 0.1073992
vt -0.2307745 -0.1073992

vn -1 0 0
vn 1 0 0
vn 0 1 0
vn 0 -1 0
vn 0 0 1
vn 0 0 -1
vn 0.6753864 0.7374641 0
vn -0.6753864 0.7374641 0
vn 0.9670891 0.254438 0
vn -0.9670862 0.2544491 0
vn 0.7071068 0.7071068 0
vn -0.7071068 0.7071068 0

usemtl ProBuilderDefault
f 100/159/6 23/156/6 25/183/6
f 100/159/6 25/183/6 95/182/6
f 95/182/6 96/164/6 100/159/6
f 97/153/5 93/167/5 94/185/5
f 94/185/5 26/184/5 97/153/5
f 26/184/5 24/152/5 97/153/5
f 10/183/5 98/154/5 9/155/5
f 98/154/5 10/183/5 92/164/5
f 10/183/5 91/182/5 92/164/5
f 89/167/6 90/185/6 11/184/6
f 89/167/6 11/184/6 99/158/6
f 12/157/6 99/158/6 11/184/6
f 3/3/1 2/2/1 1/1/1
f 1/1/1 4/4/1 3/3/1
f 7/4/2 6/3/2 5/2/2
f 5/2/2 8/1/2 7/4/2
f 9/5/3 12/8/3 11/7/3
f 11/7/3 10/6/3 9/5/3
f 13/9/4 14/12/4 1/11/4
f 1/11/4 2/10/4 13/9/4
f 1/14/5 14/13/5 15/16/5
f 15/16/5 4/15/5 1/14/5
f 13/20/6 2/19/6 3/18/6
f 3/18/6 16/17/6 13/20/6
f 18/22/4 17/21/4 4/11/4
f 4/11/4 15/12/4 18/22/4
f 21/24/3 20/5/3 19/23/3
f 19/23/3 22/25/3 21/24/3
f 24/27/3 23/26/3 12/8/3
f 12/8/3 9/5/3 24/27/3
f 26/29/3 25/28/3 23/26/3
f 23/26/3 24/27/3 26/29/3
f 27/30/4 14/12/4 13/9/4
f 13/9/4 28/31/4 27/30/4
f 5/23/4 27/30/4 28/31/4
f 28/31/4 8/32/4 5/23/4
f 27/33/5 5/19/5 6/18/5
f 6/18/5 29/34/5 27/33/5
f 15/16/5 14/13/5 27/33/5
f 27/33/5 29/34/5 15/16/5
f 8/14/6 28/36/6 30/35/6
f 30/35/6 7/15/6 8/14/6
f 16/17/6 30/35/6 28/36/6
f 28/36/6 13/20/6 16/17/6
f 31/37/4 18/22/4 15/12/4
f 15/12/4 29/30/4 31/37/4
f 32/25/4 31/37/4 29/30/4
f 29/30/4 6/23/4 32/25/4
f 35/40/3 34/39/3 33/38/3
f 33/38/3 36/41/3 35/40/3
f 39/21/3 38/11/3 37/27/3
f 37/27/3 40/42/3 39/21/3
f 41/43/1 3/3/1 4/4/1
f 4/4/1 42/44/1 41/43/1
f 43/45/1 41/43/1 42/44/1
f 42/44/1 19/46/1 43/45/1
f 45/44/2 44/43/2 6/3/2
f 6/3/2 7/4/2 45/44/2
f 46/46/2 38/45/2 44/43/2
f 44/43/2 45/44/2 46/46/2
f 42/44/1 4/4/1 17/48/1
f 17/48/1 47/47/1 42/44/1
f 19/46/1 42/44/1 47/47/1
f 47/47/1 22/49/1 19/46/1
f 38/45/2 39/51/2 48/50/2
f 48/50/2 44/43/2 38/45/2
f 44/43/2 48/50/2 32/52/2
f 32/52/2 6/3/2 44/43/2
f 47/53/5 17/15/5 18/16/5
f 18/16/5 49/54/5 47/53/5
f 22/55/5 47/53/5 49/54/5
f 49/54/5 21/56/5 22/55/5
f 41/58/6 50/57/6 16/17/6
f 16/17/6 3/18/6 41/58/6
f 43/60/6 51/59/6 50/57/6
f 50/57/6 41/58/6 43/60/6
f 52/61/5 31/34/5 32/18/5
f 32/18/5 48/58/5 52/61/5
f 40/62/5 52/61/5 48/58/5
f 48/58/5 39/60/5 40/62/5
f 55/65/5 54/64/5 53/63/5
f 53/63/5 56/66/5 55/65/5
f 58/56/5 57/54/5 60/61/5
f 60/61/5 59/62/5 58/56/5
f 61/67/6 45/53/6 7/15/6
f 7/15/6 30/35/6 61/67/6
f 62/68/6 46/55/6 45/53/6
f 45/53/6 61/67/6 62/68/6
f 50/57/6 61/67/6 30/35/6
f 30/35/6 16/17/6 50/57/6
f 51/59/6 62/68/6 61/67/6
f 61/67/6 50/57/6 51/59/6
f 57/70/4 49/22/4 52/37/4
f 52/37/4 60/69/4 57/70/4
f 58/72/1 21/49/1 49/47/1
f 49/47/1 57/71/1 58/72/1
f 60/74/2 52/50/2 40/51/2
f 40/51/2 59/73/2 60/74/2
f 64/76/3 35/40/3 36/41/3
f 36/41/3 63/75/3 64/76/3
f 34/78/6 37/68/6 20/59/6
f 20/59/6 33/77/6 34/78/6
f 35/82/7 40/80/7 37/79/7
f 37/79/7 34/81/7 35/82/7
f 33/86/8 20/84/8 21/83/8
f 21/83/8 36/85/8 33/86/8
f 36/85/8 21/83/8 58/87/8
f 58/87/8 63/88/8 36/85/8
f 64/90/7 59/89/7 40/80/7
f 40/80/7 35/82/7 64/90/7
f 63/92/5 58/56/5 59/62/5
f 59/62/5 64/91/5 63/92/5
f 68/64/5 66/16/5 65/34/5
f 65/34/5 67/63/5 68/64/5
f 70/65/5 49/54/5 18/16/5
f 18/16/5 69/64/5 70/65/5
f 72/63/5 31/34/5 52/61/5
f 52/61/5 71/66/5 72/63/5
f 71/66/5 52/61/5 49/54/5
f 49/54/5 70/65/5 71/66/5
f 54/95/3 69/93/3 72/22/3
f 72/22/3 53/94/3 54/95/3
f 55/99/2 70/97/2 69/96/2
f 69/96/2 54/98/2 55/99/2
f 53/103/1 72/101/1 71/100/1
f 71/100/1 56/102/1 53/103/1
f 56/106/4 71/24/4 70/104/4
f 70/104/4 55/105/4 56/106/4
f 66/108/4 18/22/4 31/37/4
f 31/37/4 65/107/4 66/108/4
f 76/112/9 74/110/9 73/109/9
f 73/109/9 75/111/9 76/112/9
f 80/116/10 78/114/10 77/113/10
f 77/113/10 79/115/10 80/116/10
f 67/108/3 72/22/3 69/93/3
f 69/93/3 68/117/3 67/108/3
f 78/120/6 69/118/6 18/17/6
f 18/17/6 77/119/6 78/120/6
f 77/122/4 18/22/4 66/108/4
f 66/108/4 79/121/4 77/122/4
f 84/124/3 82/117/3 81/93/3
f 81/93/3 83/123/3 84/124/3
f 79/126/5 66/16/5 68/64/5
f 68/64/5 80/125/5 79/126/5
f 74/129/6 31/35/6 72/127/6
f 72/127/6 73/128/6 74/129/6
f 88/122/3 86/22/3 85/108/3
f 85/108/3 87/121/3 88/122/3
f 76/131/4 65/107/4 31/37/4
f 31/37/4 74/130/4 76/131/4
f 75/133/5 67/63/5 65/34/5
f 65/34/5 76/132/5 75/133/5
f 86/136/1 72/101/1 67/134/1
f 67/134/1 85/135/1 86/136/1
f 85/138/5 67/63/5 75/133/5
f 75/133/5 87/137/5 85/138/5
f 88/140/6 73/128/6 72/127/6
f 72/127/6 86/139/6 88/140/6
f 87/143/2 75/141/2 73/96/2
f 73/96/2 88/142/2 87/143/2
f 82/143/2 68/141/2 69/96/2
f 69/96/2 81/142/2 82/143/2
f 81/145/6 69/118/6 78/120/6
f 78/120/6 83/144/6 81/145/6
f 84/147/5 80/125/5 68/64/5
f 68/64/5 82/146/5 84/147/5
f 83/136/1 78/101/1 80/134/1
f 80/134/1 84/135/1 83/136/1
f 90/149/1 89/148/1 92/151/1
f 92/151/1 91/150/1 90/149/1
f 95/150/2 94/149/2 93/148/2
f 93/148/2 96/151/2 95/150/2
f 9/155/5 98/154/5 97/153/5
f 97/153/5 24/152/5 9/155/5
f 12/157/6 23/156/6 100/159/6
f 100/159/6 99/158/6 12/157/6
f 101/160/1 43/45/1 19/46/1
f 19/46/1 102/161/1 101/160/1
f 89/148/1 101/160/1 102/161/1
f 102/161/1 92/151/1 89/148/1
f 104/161/2 103/160/2 38/45/2
f 38/45/2 46/46/2 104/161/2
f 96/151/2 93/148/2 103/160/2
f 103/160/2 104/161/2 96/151/2
f 102/162/5 19/55/5 20/56/5
f 20/56/5 105/163/5 102/162/5
f 92/164/5 102/162/5 105/163/5
f 105/163/5 98/154/5 92/164/5
f 101/166/6 106/165/6 51/59/6
f 51/59/6 43/60/6 101/166/6
f 89/167/6 99/158/6 106/165/6
f 106/165/6 101/166/6 89/167/6
f 107/168/5 37/62/5 38/60/5
f 38/60/5 103/166/5 107/168/5
f 97/153/5 107/168/5 103/166/5
f 103/166/5 93/167/5 97/153/5
f 105/163/5 20/56/5 37/62/5
f 37/62/5 107/168/5 105/163/5
f 109/154/5 108/163/5 111/168/5
f 111/168/5 110/153/5 109/154/5
f 112/169/6 100/159/6 96/164/6
f 96/164/6 104/162/6 112/169/6
f 62/68/6 112/169/6 104/162/6
f 104/162/6 46/55/6 62/68/6
f 51/59/6 106/165/6 112/169/6
f 112/169/6 62/68/6 51/59/6
f 106/165/6 99/158/6 100/159/6
f 100/159/6 112/169/6 106/165/6
f 108/171/3 105/5/3 107/27/3
f 107/27/3 111/170/3 108/171/3
f 111/173/1 107/161/1 97/151/1
f 97/151/1 110/172/1 111/173/1
f 109/175/2 98/148/2 105/160/2
f 105/160/2 108/174/2 109/175/2
f 110/177/4 97/30/4 98/12/4
f 98/12/4 109/176/4 110/177/4
f 95/180/11 25/178/11 26/179/11
f 26/179/11 94/181/11 95/180/11
f 91/188/12 10/186/12 11/187/12
f 11/187/12 90/189/12 91/188/12

